Coordinates
version=1
nRows=12
nColumns=33
inDegrees=yes

Units are S.I. units (second, meters, Newtons, ...)
Angles are in degrees.

endheader
time	ground_thorax_rot_x	ground_thorax_rot_y	ground_thorax_rot_z	ground_thorax_tx	ground_thorax_ty	ground_thorax_tz	clav_prot_r	clav_elev_r	scapula_abduction_r	scapula_elevation_r	scapula_upward_rot_r	scapula_winging_r	shoulder_elv_r	plane_of_elev_r	axial_rot_r	elbow_flexion_r	pro_sup_r	wrist_flex_r	wrist_dev_r	clav_prot_l	clav_elev_l	scapula_abduction_l	scapula_elevation_l	scapula_upward_rot_l	scapula_winging_l	shoulder_elv_l	plane_of_elev_l	axial_rot_l	elbow_flexion_l	pro_sup_l	wrist_flex_l	wrist_dev_l
      1.34000000	      2.01731675	     36.77357855	     25.99952203	     -0.04017469	      1.03801497	     -0.05460542	    -22.43790035	     41.41053923	    -45.00000000	     30.93952055	     45.00000000	     -8.66857088	     24.78624311	     20.42871831	     22.34999993	    125.34490861	     45.70761921	     18.12573863	    -24.99999983	     26.18802568	    -35.26143764	    -45.00000000	      7.77757253	    -41.02000472	      5.66899727	    110.97329493	     26.85809649	     26.92940226	    102.07751316	     46.87973958	     -1.57882591	    -24.99999983
      1.35000000	      2.09335951	     36.51368758	     25.87824518	     -0.04064311	      1.03834115	     -0.05527845	    -22.93686414	     41.09488305	    -45.00000000	     30.52061777	     45.00000000	     -9.10340655	     25.65729919	     21.58180384	     21.60569857	    125.16002125	     45.13346041	     18.88609827	    -24.99999983	     26.21584751	    -35.11549531	    -45.00000000	      7.85745328	    -40.46920062	      5.75976134	    111.44167453	     27.38778168	     27.89553583	    101.41550261	     47.20670026	     -1.86717297	    -24.99999983
      1.36000000	      1.93409874	     35.72549872	     26.29631946	     -0.04167394	      1.03792437	     -0.05501230	    -23.68389952	     40.61209256	    -45.00000000	     29.89285663	     45.00000000	     -9.76855655	     25.64184428	     23.59042984	     21.45355672	    123.38907622	     40.91195424	     24.20306200	    -24.99999983	     26.02719920	    -34.53762211	    -45.00000000	      7.17367546	    -40.96204656	      6.27351160	    113.03718168	     28.05674055	     29.89716545	    100.59561893	     48.50542511	     -2.81972765	    -24.99999983
      1.37000000	      1.93233987	     35.06585040	     26.49934175	     -0.04277925	      1.03780765	     -0.05506436	    -24.39470391	     40.14000992	    -45.00000000	     29.29370046	     45.00000000	    -10.40529091	     25.90450446	     25.95605881	     22.35359768	    122.68061109	     39.57793705	     15.67432933	    -24.67028880	     26.01060691	    -34.32614040	    -45.00000000	      7.09527360	    -40.68503086	      6.43119220	    113.99098524	     28.00257763	     31.01711099	    100.09629814	     48.79442668	     -2.95744937	    -24.99999983
      1.38000000	      2.22780391	     34.38912390	     26.69528864	     -0.04420775	      1.03753703	     -0.05448214	    -25.87324224	     39.11510214	    -45.00000000	     28.03834834	     45.00000000	    -11.74262971	     25.84301293	     28.26498969	     22.27099163	    120.82995584	     43.97374686	     15.16204337	    -21.61623907	     25.97480213	    -34.21577546	    -45.00000000	      6.96539830	    -40.77868782	      6.52797346	    114.97677096	     27.99093719	     32.62997486	     99.41361715	     48.95913514	     -3.29405960	    -24.99999983
      1.39000000	      2.54529082	     33.91960602	     26.66327109	     -0.04524702	      1.03714480	     -0.05419608	    -26.25826934	     38.83776007	    -45.00000000	     27.70856377	     45.00000000	    -12.09035047	     26.67383752	     30.14326741	     21.62334003	    119.85550806	     44.48580135	     14.48895061	    -21.52008187	     26.02966195	    -34.06128536	    -45.00000000	      7.13977411	    -39.96090111	      6.60814020	    115.20061867	     27.91190013	     33.38159845	     98.86418331	     48.95551874	     -3.36201115	    -24.99999983
      1.40000000	      2.81673383	     33.33744828	     26.69127373	     -0.04609356	      1.03714669	     -0.05362724	    -28.14124091	     37.41962671	    -45.00000000	     26.08133535	     45.00000000	    -13.82526646	     25.99910052	     32.56644884	     22.54893403	    118.10550754	     50.12047022	     12.65010202	    -18.68797911	     25.97561659	    -34.26702584	    -45.00000000	      6.97423067	    -40.87264188	      6.49099982	    117.74936258	     27.51057040	     35.62029538	     98.13821811	     49.22411953	     -3.50203892	    -24.99999983
      1.41000000	      3.09250492	     32.93533916	     26.98730507	     -0.04719777	      1.03671717	     -0.05306449	    -28.32482781	     37.27508531	    -45.00000000	     25.92048674	     45.00000000	    -13.99489918	     26.66959902	     34.34882974	     21.86531707	    116.91457325	     50.45561685	     12.18618396	    -18.49980536	     26.01901407	    -34.09366058	    -45.00000000	      7.10158400	    -40.13660157	      6.59263072	    117.50544544	     27.51644954	     36.20711028	     97.61293023	     49.15653562	     -3.61135932	    -24.99999983
      1.42000000	      3.38922275	     32.53358811	     27.10282006	     -0.04802420	      1.03631995	     -0.05252084	    -28.65889640	     37.00988428	    -45.00000000	     25.62771698	     45.00000000	    -14.30666842	     27.21261262	     36.15550325	     21.31371031	    115.72001451	     50.94214027	     11.94947231	    -18.08683585	     26.04841109	    -33.90746473	    -45.00000000	      7.19486319	    -39.46302075	      6.70741913	    117.59389412	     27.53856481	     37.01734603	     97.03402475	     49.11210504	     -3.73340922	    -24.99999983
      1.43000000	      3.61377866	     32.00543948	     26.99495466	     -0.04839373	      1.03623093	     -0.05168466	    -29.85524442	     36.02885319	    -45.00000000	     24.56917085	     45.00000000	    -15.42793334	     26.53047121	     38.21313338	     21.68669913	    114.19223025	     53.97851576	     12.02264662	    -16.11816756	     26.03593050	    -33.86753058	    -45.00000000	      7.14815645	    -39.49648325	      6.74059937	    119.19399870	     27.17119289	     38.54586558	     96.40639800	     49.22258605	     -3.97296580	    -24.99999983
      1.44000000	      3.95035091	     31.78946228	     27.04738707	     -0.04904021	      1.03593354	     -0.05148970	    -30.33641960	     35.61970491	    -45.00000000	     24.13795175	     45.00000000	    -15.87952043	     27.15552061	     39.91091210	     21.30198703	    113.05632258	     54.82660931	     11.57988527	    -15.70406233	     26.07124055	    -33.77826718	    -45.00000000	      7.28328503	    -38.93219380	      6.78093605	    119.37531773	     27.30697970	     39.35516094	     95.74724036	     49.22784964	     -4.05695868	    -24.99999983
      1.45000000	      4.16173578	     31.52754778	     27.02003941	     -0.04916867	      1.03603446	     -0.05119282	    -31.60182177	     34.50060069	    -45.00000000	     22.98845231	     45.00000000	    -17.07442468	     26.71825207	     41.78469705	     22.02817396	    111.67045565	     58.08581672	     11.43139660	    -13.94622167	     26.07423658	    -33.85714104	    -45.00000000	      7.29461531	    -39.08328119	      6.72350814	    120.90940901	     27.09745951	     40.63711363	     95.01526856	     49.45318475	     -4.35746398	    -24.99999983
